<svg width="200" height="200" viewBox="0 0 200 200" fill="none" xmlns="http://www.w3.org/2000/svg">
<circle cx="100" cy="100" r="100" fill="white"/>
<path d="M99.6677 65.7443C99.5505 65.6285 99.4113 65.5366 99.258 65.4739C99.1048 65.4112 98.9406 65.3789 98.7747 65.3789C98.6089 65.3789 98.4446 65.4112 98.2914 65.4739C98.1382 65.5366 97.999 65.6285 97.8818 65.7443L95.1526 68.4386C94.4796 69.1003 93.946 69.8869 93.5825 70.7531C93.2189 71.6194 93.0326 72.5481 93.0344 73.4858V96.0938C93.0344 96.4242 93.1674 96.7412 93.4041 96.9749C93.6408 97.2085 93.9618 97.3398 94.2966 97.3398C94.6313 97.3398 94.9524 97.2085 95.1891 96.9749C95.4258 96.7412 95.5588 96.4242 95.5588 96.0938V73.4858C95.557 72.8749 95.678 72.2698 95.9149 71.7055C96.1517 71.1412 96.4996 70.6289 96.9385 70.1983L99.6677 67.504C99.7849 67.3886 99.8779 67.2514 99.9414 67.1005C100.005 66.9495 100.038 66.7876 100.038 66.6242C100.038 66.4607 100.005 66.2988 99.9414 66.1478C99.8779 65.9969 99.7849 65.8597 99.6677 65.7443Z" fill="#AB0A3D"/>
<path d="M100.104 59.9647L92.833 57.7874C91.8024 59.6896 90.5972 61.4328 89.3317 63.2853C89.249 63.5108 89.1548 63.732 89.0497 63.9481C89.0128 64.0177 88.9691 64.0774 88.9322 64.1469L90.849 61.7808C88.5809 66.4945 85.1462 70.5679 80.8621 73.6249C76.5881 70.5655 73.1582 66.4981 70.8853 61.794L71.9428 63.0964C71.8655 62.9506 71.7816 62.8015 71.7212 62.6557C71.6843 62.6291 71.6574 62.5993 71.6205 62.5728C71.1999 62.09 70.8661 61.5396 70.6335 60.9456C69.8299 60.0182 69.1939 58.9611 68.7537 57.8206L61.3013 60.0277C60.1163 60.3735 59.0771 61.0897 58.3398 62.0686C57.6025 63.0475 57.2069 64.2361 57.2125 65.456V96.0573C57.2037 96.2261 57.2298 96.395 57.2891 96.5535C57.3485 96.7121 57.4399 96.8571 57.5578 96.9796C57.6757 97.1022 57.8177 97.1998 57.975 97.2665C58.1324 97.3332 58.3018 97.3676 58.4731 97.3676C58.6443 97.3676 58.8137 97.3332 58.9711 97.2665C59.1284 97.1998 59.2704 97.1022 59.3883 96.9796C59.5062 96.8571 59.5976 96.7121 59.657 96.5535C59.7163 96.395 59.7424 96.2261 59.7336 96.0573V65.4593C59.7285 65.3688 59.7285 65.2781 59.7336 65.1875L64.769 70.1585C65.2089 70.5885 65.5577 71.1006 65.7952 71.665C66.0326 72.2294 66.1539 72.8349 66.152 73.446V96.054C66.1432 96.2228 66.1693 96.3916 66.2286 96.5502C66.288 96.7088 66.3794 96.8537 66.4973 96.9763C66.6153 97.0989 66.7572 97.1965 66.9145 97.2632C67.0719 97.3299 67.2413 97.3643 67.4126 97.3643C67.5838 97.3643 67.7532 97.3299 67.9106 97.2632C68.0679 97.1965 68.2099 97.0989 68.3278 96.9763C68.4457 96.8537 68.5371 96.7088 68.5965 96.5502C68.6559 96.3916 68.6819 96.2228 68.6731 96.054V73.4526C68.6758 72.5143 68.49 71.5848 68.1264 70.7179C67.7628 69.851 67.2287 69.0639 66.5549 68.4021L61.0159 62.9208C61.3186 62.695 61.6596 62.5244 62.023 62.417L67.7063 60.7335C70.1784 67.0072 74.5213 72.3923 80.1605 76.1767C80.3673 76.3128 80.6103 76.3854 80.8588 76.3854C81.1073 76.3854 81.3502 76.3128 81.557 76.1767C90.5536 70.2546 93.7628 61.5057 94.028 60.7468L99.3823 62.3475C99.543 62.403 99.7134 62.4259 99.8833 62.4147C100.053 62.4036 100.219 62.3586 100.371 62.2825C100.523 62.2064 100.657 62.1008 100.767 61.972C100.876 61.8432 100.958 61.6938 101.007 61.533C101.057 61.3721 101.073 61.2031 101.054 61.036C101.036 60.8689 100.983 60.7072 100.9 60.5607C100.816 60.4142 100.704 60.2859 100.569 60.1834C100.434 60.081 100.279 60.0066 100.114 59.9647" fill="#AB0A3D"/>
<path d="M99.6677 65.7443C99.5505 65.6285 99.4113 65.5366 99.258 65.4739C99.1048 65.4112 98.9406 65.3789 98.7747 65.3789C98.6089 65.3789 98.4446 65.4112 98.2914 65.4739C98.1382 65.5366 97.999 65.6285 97.8818 65.7443L95.1526 68.4386C94.4796 69.1003 93.946 69.8869 93.5825 70.7531C93.2189 71.6194 93.0326 72.5481 93.0344 73.4858V96.0938C93.0344 96.4242 93.1674 96.7412 93.4041 96.9749C93.6408 97.2085 93.9618 97.3398 94.2966 97.3398C94.6313 97.3398 94.9524 97.2085 95.1891 96.9749C95.4258 96.7412 95.5588 96.4242 95.5588 96.0938V73.4858C95.557 72.8749 95.678 72.2698 95.9149 71.7055C96.1517 71.1412 96.4996 70.6289 96.9385 70.1983L99.6677 67.504C99.7849 67.3886 99.8779 67.2514 99.9414 67.1005C100.005 66.9495 100.038 66.7876 100.038 66.6242C100.038 66.4607 100.005 66.2988 99.9414 66.1478C99.8779 65.9969 99.7849 65.8597 99.6677 65.7443Z" fill="#AB0A3D"/>
<path d="M121.165 60.5016C121.931 60.4918 122.684 60.3129 123.37 59.978C124.056 59.6431 124.658 59.1607 125.13 58.5662C125.234 58.4393 125.312 58.2935 125.359 58.1369C125.406 57.9803 125.422 57.816 125.405 57.6536C125.388 57.4911 125.338 57.3335 125.259 57.1899C125.181 57.0462 125.074 56.9193 124.945 56.8164C124.817 56.7135 124.669 56.6366 124.51 56.59C124.352 56.5435 124.186 56.5282 124.021 56.5452C123.856 56.5621 123.697 56.6108 123.551 56.6887C123.406 56.7665 123.277 56.8718 123.173 56.9987C122.944 57.3148 122.641 57.5723 122.291 57.75C121.941 57.9277 121.553 58.0204 121.159 58.0204C120.765 58.0204 120.377 57.9277 120.027 57.75C119.676 57.5723 119.374 57.3148 119.145 56.9987C118.93 56.7553 118.628 56.6036 118.302 56.5756C117.976 56.5476 117.652 56.6455 117.398 56.8487C117.144 57.0518 116.98 57.3444 116.94 57.6648C116.9 57.9851 116.988 58.3083 117.184 58.5662C117.657 59.1607 118.258 59.6431 118.944 59.978C119.63 60.3129 120.383 60.4918 121.149 60.5016" fill="#AB0A3D"/>
<path d="M107.731 78.6423C107.565 78.6419 107.401 78.6737 107.248 78.736C107.095 78.7982 106.956 78.8897 106.839 79.0051C106.721 79.1206 106.628 79.2577 106.565 79.4087C106.501 79.5597 106.469 79.7216 106.469 79.8851V96.0938C106.469 96.4242 106.602 96.7412 106.839 96.9749C107.075 97.2085 107.396 97.3398 107.731 97.3398C108.066 97.3398 108.387 97.2085 108.624 96.9749C108.86 96.7412 108.993 96.4242 108.993 96.0938V79.8851C108.993 79.7216 108.961 79.5597 108.897 79.4087C108.834 79.2577 108.741 79.1206 108.623 79.0051C108.506 78.8897 108.367 78.7982 108.214 78.736C108.061 78.6737 107.897 78.6419 107.731 78.6423Z" fill="#AB0A3D"/>
<path d="M134.6 78.6423C134.434 78.6419 134.27 78.6737 134.117 78.736C133.964 78.7982 133.825 78.8897 133.708 79.0051C133.59 79.1206 133.497 79.2577 133.434 79.4087C133.37 79.5597 133.338 79.7216 133.338 79.8851V96.0938C133.338 96.4242 133.471 96.7412 133.707 96.9749C133.944 97.2085 134.265 97.3398 134.6 97.3398C134.935 97.3398 135.256 97.2085 135.492 96.9749C135.729 96.7412 135.862 96.4242 135.862 96.0938V79.8851C135.861 79.5552 135.728 79.2391 135.491 79.0061C135.255 78.7732 134.934 78.6423 134.6 78.6423Z" fill="#AB0A3D"/>
<path d="M139.108 70.132C139.905 69.1311 140.337 67.8952 140.337 66.6225C140.336 65.6078 140.058 64.6122 139.531 63.7407C139.005 62.8692 138.25 62.1543 137.346 61.6714C137.346 61.6018 137.346 61.5355 137.346 61.4659C137.347 60.6811 137.158 59.9075 136.795 59.2094C136.432 58.5113 135.905 57.909 135.258 57.4527C135.342 57.1677 135.422 56.8761 135.49 56.5844C135.66 55.8324 135.765 55.0674 135.805 54.2978C137.634 51.6397 138.679 48.5317 138.823 45.3213C138.966 42.1108 138.203 38.9241 136.617 36.1173C137.34 35.4159 137.761 34.4662 137.792 33.4661C137.792 29.2441 130.316 26.911 122.455 26.636C122.617 26.2123 122.7 25.7632 122.7 25.3104C122.7 23.8191 121.884 22.6128 120.88 22.6128C119.876 22.6128 119.064 23.8191 119.064 25.3104C119.063 25.763 119.145 26.2121 119.306 26.636C111.447 26.911 103.971 29.2441 103.971 33.4661C103.971 34.6127 104.525 35.6169 105.489 36.4818C104.01 39.2663 103.322 42.3944 103.5 45.5336C103.677 48.6729 104.712 51.7061 106.496 54.311C106.538 55.0807 106.644 55.8455 106.815 56.5977C106.882 56.8893 106.959 57.1776 107.046 57.466C106.399 57.9221 105.872 58.5243 105.509 59.2224C105.146 59.9206 104.957 60.6944 104.958 61.4792C104.958 61.5488 104.958 61.6151 104.958 61.6847C104.224 62.0757 103.586 62.6209 103.088 63.2818C102.591 63.9426 102.246 64.7031 102.079 65.5097C101.911 66.3163 101.924 67.1493 102.118 67.9502C102.311 68.7511 102.681 69.5004 103.199 70.1453C101.909 70.9081 100.842 71.9889 100.103 73.2816C99.3641 74.5743 98.978 76.0345 98.9829 77.5189V96.1103C98.9829 96.4408 99.1158 96.7578 99.3526 96.9914C99.5893 97.2251 99.9103 97.3564 100.245 97.3564C100.58 97.3564 100.901 97.2251 101.138 96.9914C101.374 96.7578 101.507 96.4408 101.507 96.1103V77.5189C101.501 76.2899 101.873 75.088 102.572 74.0712C103.271 73.0544 104.266 72.2704 105.425 71.8221L105.667 71.726C109.396 76.697 115.143 79.6564 121.162 79.6564C127.262 79.6564 132.885 76.7732 136.658 71.726L136.899 71.8221C138.052 72.2731 139.041 73.0566 139.736 74.0704C140.431 75.0842 140.801 76.2813 140.797 77.5056V96.0938C140.797 96.4242 140.93 96.7412 141.167 96.9749C141.403 97.2085 141.724 97.3398 142.059 97.3398C142.394 97.3398 142.715 97.2085 142.952 96.9749C143.188 96.7412 143.321 96.4242 143.321 96.0938V77.5056C143.326 76.0212 142.94 74.5611 142.201 73.2684C141.462 71.9757 140.395 70.8949 139.105 70.132M120.887 29.5092C129.92 29.5092 134.848 32.114 134.848 33.4528C134.848 34.7917 129.93 37.3832 120.887 37.3832C111.843 37.3832 106.929 34.7784 106.929 33.4396C106.929 32.1007 111.857 29.4959 120.887 29.4959M106.006 44.5182C106.007 42.2022 106.558 39.9187 107.614 37.8505C110.873 39.471 115.892 40.3095 120.887 40.3095C126.107 40.3095 131.36 39.4014 134.597 37.6351C135.648 39.6152 136.235 41.8038 136.313 44.0384C136.391 46.273 135.958 48.4962 135.046 50.543C133.227 46.6823 129.189 45.5986 125.261 44.5514C122.082 43.6997 118.799 42.8248 115.982 40.6011C115.835 40.4849 115.663 40.403 115.479 40.3614C115.295 40.3197 115.104 40.3194 114.92 40.3604C114.736 40.4015 114.564 40.4828 114.416 40.5985C114.268 40.7141 114.148 40.8611 114.066 41.0286C114.066 41.0551 112.723 43.6201 110.151 44.8927C109.996 44.9614 109.856 45.0604 109.741 45.1839C109.625 45.3073 109.536 45.4525 109.479 45.6108C109.421 45.7691 109.397 45.9372 109.407 46.105C109.418 46.2728 109.462 46.4368 109.538 46.5872C109.615 46.7375 109.721 46.8711 109.851 46.9799C109.98 47.0887 110.131 47.1704 110.294 47.2201C110.456 47.2699 110.628 47.2866 110.797 47.2694C110.966 47.2521 111.13 47.2012 111.279 47.1197C112.987 46.2338 114.451 44.9522 115.546 43.3848C118.483 45.3335 121.713 46.1951 124.61 46.9673C125.56 47.2191 126.433 47.461 127.228 47.7096H127.148C126.417 47.7091 125.699 47.8949 125.062 48.2491C124.426 48.6033 123.893 49.1138 123.515 49.7311C122.79 49.3694 121.988 49.1809 121.176 49.1809C120.363 49.1809 119.561 49.3694 118.836 49.7311C118.315 48.8823 117.505 48.2436 116.552 47.9287C115.598 47.6138 114.562 47.6431 113.629 48.0115C112.695 48.3798 111.924 49.0632 111.453 49.9401C110.982 50.817 110.841 51.8305 111.056 52.8002C111.271 53.7699 111.827 54.6328 112.626 55.2355C113.425 55.8381 114.415 56.1413 115.419 56.0912C116.423 56.041 117.377 55.6407 118.11 54.9616C118.843 54.2824 119.309 53.3684 119.423 52.3823C119.895 51.9376 120.522 51.6895 121.174 51.6895C121.826 51.6895 122.453 51.9376 122.925 52.3823C123 53.0547 123.239 53.6991 123.621 54.2606C124.003 54.822 124.517 55.2838 125.12 55.6065C125.722 55.9292 126.394 56.1032 127.08 56.1137C127.765 56.1241 128.442 55.9708 129.054 55.6666C129.667 55.3625 130.195 54.9166 130.595 54.3671C130.994 53.8176 131.253 53.1808 131.35 52.511C131.446 51.8413 131.377 51.1584 131.148 50.5208C130.919 49.8833 130.537 49.3099 130.035 48.8496C131.837 49.8206 132.948 51.1694 133.358 53.5654C133.337 53.6513 133.325 53.739 133.321 53.8272C133.277 55.5479 132.852 57.2381 132.074 58.7785C131.296 60.3189 130.185 61.6719 128.819 62.7418C126.655 64.4681 123.956 65.4098 121.174 65.4098C118.391 65.4098 115.693 64.4681 113.528 62.7418C112.164 61.6713 111.054 60.3181 110.276 58.7778C109.499 57.2374 109.074 55.5475 109.03 53.8272C109.018 53.5106 108.883 53.2107 108.654 52.9888C106.93 50.5036 106.01 47.5604 106.016 44.548M128.87 51.9183C128.87 52.2554 128.768 52.5849 128.579 52.865C128.389 53.1452 128.119 53.3636 127.804 53.4924C127.488 53.6212 127.141 53.6548 126.806 53.5888C126.472 53.5228 126.164 53.3602 125.923 53.1217C125.682 52.8831 125.518 52.5793 125.451 52.2486C125.385 51.918 125.42 51.5754 125.551 51.2642C125.682 50.953 125.904 50.6872 126.188 50.5004C126.472 50.3137 126.806 50.2143 127.148 50.215C127.374 50.215 127.598 50.259 127.807 50.3447C128.016 50.4303 128.206 50.5559 128.366 50.7141C128.526 50.8723 128.653 51.0601 128.74 51.2667C128.826 51.4734 128.87 51.6948 128.87 51.9183ZM116.929 51.9183C116.929 52.2552 116.828 52.5846 116.638 52.8647C116.449 53.1448 116.179 53.3631 115.864 53.4921C115.549 53.621 115.202 53.6547 114.867 53.589C114.532 53.5233 114.225 53.361 113.983 53.1228C113.742 52.8846 113.578 52.5811 113.511 52.2507C113.445 51.9202 113.479 51.5777 113.609 51.2665C113.74 50.9552 113.961 50.6892 114.245 50.502C114.529 50.3149 114.862 50.215 115.204 50.215C115.661 50.215 116.1 50.3944 116.424 50.7139C116.747 51.0333 116.929 51.4666 116.929 51.9183ZM128.427 68.4883C126.454 70.2925 123.864 71.2948 121.176 71.2948C118.487 71.2948 115.897 70.2925 113.925 68.4883C114.702 68.1545 115.36 67.5966 115.811 66.8876C119.263 68.2301 123.102 68.2301 126.553 66.8876C127.005 67.5966 127.662 68.1545 128.44 68.4883M105.68 69.0715C105.24 68.7073 104.907 68.2327 104.717 67.6976C104.527 67.1626 104.487 66.5868 104.6 66.031C104.713 65.4751 104.976 64.9597 105.361 64.5389C105.746 64.1182 106.239 63.8076 106.788 63.6399C107.098 63.5426 107.358 63.3307 107.514 63.0485C107.67 62.7663 107.709 62.4356 107.624 62.1254C107.562 61.9186 107.528 61.7047 107.523 61.4891C107.522 60.9256 107.72 60.3794 108.084 59.9448C109.024 61.7725 110.344 63.3839 111.957 64.6739C112.458 65.0711 112.984 65.4364 113.532 65.7675C113.35 65.9745 113.12 66.1339 112.86 66.2314L105.68 69.0715ZM121.189 77.1908C116.103 77.1908 111.407 74.871 108.124 70.7882L111.397 69.4957C112.634 70.8468 114.145 71.9267 115.831 72.6658C117.518 73.4049 119.342 73.7868 121.187 73.7868C123.032 73.7868 124.857 73.4049 126.543 72.6658C128.23 71.9267 129.74 70.8468 130.978 69.4957L134.254 70.7882C130.971 74.871 126.265 77.1908 121.189 77.1908ZM136.698 69.0715L129.481 66.2149C129.222 66.1156 128.992 65.9565 128.809 65.7509C131.147 64.35 133.04 62.3291 134.271 59.9183C134.634 60.3529 134.833 60.8991 134.832 61.4626C134.826 61.6782 134.792 61.8921 134.731 62.0989C134.645 62.4086 134.684 62.739 134.839 63.0211C134.994 63.3033 135.254 63.5154 135.563 63.6134C136.112 63.7807 136.605 64.091 136.991 64.5115C137.376 64.9321 137.639 65.4475 137.753 66.0034C137.867 66.5593 137.827 67.1352 137.637 67.6704C137.447 68.2057 137.115 68.6805 136.675 69.045" fill="#AB0A3D"/>
<path fill-rule="evenodd" clip-rule="evenodd" d="M45 101.621H155V145.721C155 151.842 147.853 156.163 133.982 156.163H121.045C111.088 156.163 104.723 158.049 100.023 160.594C95.3238 158.049 88.9154 156.163 79.0057 156.163H66.0681C52.1939 156.163 45 151.855 45 145.721V101.621Z" fill="#AB0A3D"/>
<path d="M62.4091 119.205L62.634 117.091H62.5433L61.9022 118.795L59.6765 122.761H59.0186L56.6721 118.778L56.0141 117.091H55.9402L56.239 119.189V124.723H54.2953V114.079H56.1652L58.9581 118.947L59.4482 120.163H59.5087L59.9585 118.914L62.6038 114.079H64.4534V124.723H62.4091V119.205Z" fill="white"/>
<path d="M65.9204 119.401C65.9204 117.634 66.3031 116.268 67.0685 115.305C67.8339 114.342 68.9294 113.862 70.3549 113.867C71.0294 113.851 71.6985 113.987 72.312 114.264C72.8619 114.52 73.3393 114.906 73.7018 115.388C74.094 115.912 74.379 116.506 74.541 117.138C74.7287 117.878 74.8189 118.638 74.8096 119.401C74.8096 121.168 74.4235 122.535 73.6514 123.5C72.8793 124.466 71.7861 124.944 70.3717 124.935C69.6877 124.953 69.0083 124.818 68.3844 124.541C67.8366 124.283 67.3616 123.896 67.0014 123.414C66.6191 122.889 66.3433 122.296 66.189 121.668C66.0013 120.927 65.9111 120.165 65.9204 119.401ZM68.0689 119.401C68.0645 119.898 68.1094 120.394 68.2031 120.882C68.2768 121.289 68.4163 121.682 68.616 122.046C68.7832 122.355 69.0268 122.617 69.3244 122.808C69.6337 122.996 69.9917 123.092 70.3549 123.083C70.6867 123.093 71.0155 123.018 71.3095 122.866C71.6035 122.714 71.8529 122.49 72.0334 122.215C72.4318 121.638 72.6309 120.7 72.6309 119.401C72.6332 118.917 72.5905 118.433 72.5034 117.956C72.4322 117.549 72.2998 117.155 72.1106 116.786C71.9461 116.471 71.7036 116.202 71.4057 116.004C71.0885 115.808 70.719 115.71 70.3449 115.723C70.0108 115.713 69.68 115.79 69.3855 115.945C69.091 116.101 68.843 116.331 68.6664 116.611C68.2703 117.204 68.0689 118.135 68.0689 119.401Z" fill="white"/>
<path d="M83.3395 124.286C82.975 124.538 82.5592 124.709 82.121 124.786C81.6216 124.886 81.1132 124.936 80.6036 124.935C79.9957 124.938 79.3919 124.838 78.8178 124.64C78.2534 124.442 77.7448 124.113 77.334 123.683C76.8787 123.186 76.5355 122.6 76.3269 121.963C76.0523 121.137 75.9229 120.27 75.9442 119.401C75.9194 118.509 76.064 117.62 76.3706 116.78C76.6125 116.14 76.9902 115.56 77.4783 115.076C77.9074 114.66 78.4244 114.344 78.9923 114.148C79.5324 113.964 80.0994 113.869 80.6708 113.867C81.1793 113.86 81.6874 113.901 82.1881 113.989C82.5386 114.05 82.8817 114.147 83.212 114.278L82.8091 116.041C82.5507 115.921 82.2758 115.84 81.9934 115.799C81.6156 115.744 81.2339 115.718 80.8521 115.723C80.472 115.71 80.0941 115.784 79.7482 115.94C79.4022 116.096 79.0975 116.329 78.858 116.621C78.3545 117.222 78.1027 118.152 78.1027 119.411C78.0975 119.916 78.1584 120.419 78.284 120.909C78.3852 121.327 78.5701 121.722 78.8278 122.069C79.0679 122.385 79.3809 122.641 79.7409 122.814C80.1335 123 80.5646 123.092 80.9998 123.083C81.3839 123.091 81.7673 123.044 82.1378 122.944C82.4206 122.863 82.6915 122.746 82.9434 122.596L83.3395 124.286Z" fill="white"/>
<path d="M87.1899 120.176H86.6528V124.723H84.6085V114.079H86.6528V118.795L87.1295 118.579L90.0131 114.079H92.3462L89.2981 118.549L88.4924 119.129L89.3283 119.722L92.8094 124.723H90.285L87.1899 120.176Z" fill="white"/>
<path d="M93.1519 119.401C93.1519 117.634 93.5357 116.268 94.3033 115.305C95.0709 114.342 96.1664 113.862 97.5897 113.867C98.2642 113.851 98.9333 113.987 99.5468 114.264C100.097 114.52 100.574 114.906 100.937 115.388C101.323 115.913 101.602 116.507 101.759 117.138C101.947 117.878 102.037 118.638 102.028 119.401C102.028 121.168 101.642 122.535 100.869 123.5C100.097 124.466 99.0041 124.944 97.5897 124.935C96.9113 124.951 96.238 124.816 95.6192 124.541C95.0714 124.283 94.5964 123.896 94.2362 123.414C93.8542 122.889 93.5773 122.296 93.4204 121.668C93.2344 120.926 93.1442 120.165 93.1519 119.401ZM95.3037 119.401C95.2992 119.898 95.3442 120.394 95.4379 120.882C95.5101 121.29 95.6496 121.683 95.8508 122.046C96.018 122.355 96.2616 122.617 96.5592 122.808C96.8683 122.996 97.2264 123.092 97.5897 123.083C97.9215 123.093 98.2503 123.018 98.5443 122.866C98.8383 122.714 99.0877 122.49 99.2682 122.215C99.6666 121.638 99.8657 120.7 99.8657 119.401C99.868 118.917 99.8253 118.433 99.7382 117.956C99.6675 117.548 99.5339 117.154 99.3421 116.786C99.1797 116.471 98.9382 116.201 98.6405 116.004C98.3233 115.808 97.9538 115.71 97.5797 115.723C97.2456 115.713 96.9148 115.79 96.6203 115.945C96.3258 116.101 96.0778 116.331 95.9012 116.611C95.5028 117.205 95.3037 118.135 95.3037 119.401Z" fill="white"/>
<path d="M110.527 116.558C110.528 116.825 110.495 117.091 110.43 117.35C110.368 117.607 110.26 117.852 110.111 118.072C109.957 118.298 109.761 118.494 109.534 118.649C109.273 118.826 108.98 118.953 108.671 119.023V119.113C108.964 119.161 109.25 119.248 109.52 119.371C109.784 119.491 110.021 119.662 110.215 119.875C110.422 120.099 110.582 120.361 110.685 120.647C110.806 120.994 110.864 121.36 110.856 121.727C110.873 122.201 110.766 122.671 110.545 123.092C110.324 123.513 109.996 123.871 109.594 124.13C109.194 124.39 108.753 124.58 108.288 124.693C107.794 124.815 107.287 124.876 106.778 124.876H106.13C105.865 124.876 105.579 124.876 105.277 124.853C104.975 124.829 104.666 124.813 104.351 124.783C104.061 124.757 103.774 124.711 103.491 124.647V114.155C103.683 114.125 103.897 114.095 104.142 114.066C104.388 114.036 104.646 114.009 104.925 113.989C105.203 113.969 105.489 113.953 105.784 113.943C106.079 113.933 106.368 113.943 106.66 113.943C107.137 113.943 107.613 113.981 108.083 114.059C108.517 114.125 108.936 114.261 109.326 114.46C109.683 114.65 109.984 114.928 110.198 115.268C110.433 115.664 110.549 116.116 110.534 116.574M106.17 118.563C106.311 118.563 106.472 118.563 106.657 118.563C106.81 118.555 106.962 118.54 107.113 118.516C107.474 118.406 107.807 118.222 108.09 117.976C108.225 117.857 108.331 117.711 108.402 117.547C108.472 117.383 108.506 117.206 108.5 117.028C108.51 116.798 108.459 116.57 108.352 116.365C108.256 116.2 108.12 116.061 107.956 115.961C107.783 115.858 107.594 115.786 107.395 115.749C107.174 115.708 106.949 115.688 106.724 115.689C106.465 115.689 106.227 115.689 106.009 115.706C105.839 115.711 105.67 115.725 105.502 115.749V118.563H106.17ZM106.818 123.139C107.058 123.14 107.297 123.11 107.53 123.05C107.748 122.996 107.954 122.901 108.137 122.771C108.313 122.646 108.459 122.485 108.564 122.297C108.673 122.093 108.728 121.865 108.725 121.635C108.739 121.361 108.673 121.088 108.537 120.849C108.41 120.662 108.238 120.51 108.036 120.405C107.821 120.299 107.588 120.23 107.348 120.203C107.094 120.174 106.839 120.159 106.583 120.16H105.515V123.063C105.591 123.09 105.67 123.105 105.75 123.109C105.854 123.109 105.972 123.109 106.086 123.129H106.469C106.6 123.129 106.714 123.129 106.805 123.129" fill="white"/>
<path d="M119.403 124.286C119.039 124.538 118.623 124.709 118.185 124.786C117.685 124.886 117.177 124.936 116.667 124.935C116.059 124.938 115.455 124.838 114.881 124.64C114.317 124.442 113.808 124.113 113.398 123.683C112.935 123.189 112.586 122.602 112.374 121.963C112.099 121.137 111.97 120.27 111.991 119.401C111.966 118.509 112.111 117.62 112.417 116.78C112.659 116.14 113.037 115.56 113.525 115.076C113.954 114.66 114.471 114.344 115.039 114.148C115.579 113.964 116.146 113.869 116.718 113.867C117.226 113.86 117.734 113.901 118.235 113.989C118.585 114.051 118.928 114.147 119.259 114.278L118.856 116.041C118.597 115.921 118.323 115.84 118.04 115.799C117.662 115.744 117.281 115.718 116.899 115.723C116.519 115.71 116.141 115.784 115.795 115.94C115.449 116.096 115.144 116.329 114.905 116.621C114.401 117.222 114.149 118.152 114.149 119.411C114.144 119.916 114.205 120.419 114.331 120.909C114.432 121.327 114.617 121.722 114.875 122.069C115.114 122.385 115.426 122.64 115.784 122.814C116.178 123 116.61 123.092 117.047 123.083C117.431 123.091 117.814 123.044 118.185 122.944C118.467 122.863 118.738 122.746 118.99 122.596L119.403 124.286Z" fill="white"/>
<path d="M123.257 120.176H122.72V124.723H120.672V114.079H122.72V118.795L123.196 118.579L126.08 114.079H128.41L125.362 118.549L124.556 119.129L125.392 119.722L128.873 124.723H126.349L123.257 120.176Z" fill="white"/>
<path d="M129.215 119.401C129.215 117.634 129.599 116.268 130.367 115.305C131.134 114.342 132.23 113.862 133.653 113.867C134.328 113.852 134.997 113.988 135.61 114.264C136.16 114.52 136.638 114.906 137 115.388C137.386 115.913 137.666 116.507 137.823 117.138C138.009 117.878 138.099 118.638 138.091 119.401C138.091 121.168 137.705 122.535 136.933 123.5C136.161 124.466 135.068 124.944 133.653 124.935C132.974 124.95 132.299 124.816 131.679 124.541C131.133 124.283 130.659 123.896 130.3 123.414C129.918 122.889 129.641 122.296 129.484 121.668C129.298 120.926 129.208 120.165 129.215 119.401ZM131.367 119.401C131.363 119.898 131.408 120.394 131.501 120.882C131.574 121.29 131.713 121.683 131.914 122.046C132.082 122.355 132.325 122.617 132.623 122.808C132.932 122.996 133.29 123.092 133.653 123.083C133.985 123.093 134.314 123.018 134.608 122.866C134.902 122.714 135.151 122.49 135.332 122.215C135.728 121.638 135.929 120.7 135.929 119.401C135.932 118.917 135.889 118.433 135.802 117.956C135.729 117.549 135.596 117.155 135.406 116.786C135.243 116.471 135.002 116.201 134.704 116.004C134.387 115.808 134.017 115.71 133.643 115.722C133.309 115.713 132.978 115.789 132.684 115.945C132.389 116.101 132.141 116.331 131.965 116.611C131.564 117.205 131.365 118.135 131.367 119.401Z" fill="white"/>
<path d="M139.555 114.079H145.755V115.935H141.602V118.413H145.379V120.269H141.602V122.867H145.829V124.723H139.555V114.079Z" fill="white"/>
<path d="M63.208 143.431H62.2009L61.9189 141.061H54.7989L54.5135 143.431H53.5065V139.742H54.621C54.7734 139.508 54.9059 139.262 55.0171 139.007C55.2227 138.524 55.3834 138.024 55.4971 137.512C55.6805 136.725 55.8195 135.928 55.9134 135.126C56.0449 133.995 56.1177 132.858 56.1316 131.719H61.8384V139.742H63.2181L63.208 143.431ZM60.3143 139.756V133.025H57.4811C57.4576 133.548 57.4139 134.115 57.3502 134.732C57.2864 135.348 57.2025 135.964 57.095 136.581C56.993 137.169 56.8574 137.751 56.6888 138.324C56.548 138.814 56.3579 139.289 56.1215 139.742L60.3143 139.756Z" fill="white"/>
<path d="M64.5508 136.382C64.5508 134.804 64.8865 133.595 65.6183 132.756C66.3501 131.918 67.3538 131.497 68.6865 131.497C69.3177 131.477 69.9459 131.59 70.5295 131.828C71.0387 132.048 71.4841 132.39 71.8253 132.823C72.1797 133.283 72.4366 133.81 72.5806 134.37C72.7521 135.025 72.8356 135.699 72.829 136.375C72.829 137.955 72.472 139.165 71.7581 140.004C71.0442 140.844 70.0203 141.263 68.6865 141.263C68.0564 141.283 67.4294 141.17 66.8469 140.932C66.3377 140.712 65.8923 140.371 65.5511 139.938C65.2003 139.476 64.9468 138.95 64.8059 138.39C64.6384 137.734 64.5572 137.059 64.5642 136.382M66.1319 136.382C66.1302 136.84 66.1775 137.296 66.2729 137.744C66.3535 138.146 66.5034 138.532 66.716 138.884C66.9076 139.202 67.1735 139.47 67.4915 139.666C67.8513 139.874 68.2632 139.977 68.6798 139.964C70.3941 139.978 71.2512 138.783 71.2512 136.382C71.2534 135.919 71.2062 135.457 71.1102 135.003C71.0296 134.601 70.8798 134.215 70.6671 133.863C70.4686 133.547 70.1957 133.282 69.8715 133.091C69.5083 132.89 69.0962 132.79 68.6798 132.803C66.9678 132.79 66.1118 133.983 66.1118 136.382" fill="white"/>
<path d="M80.1773 133.025H77.438C77.4011 133.548 77.3608 134.112 77.3239 134.715C77.287 135.318 77.2299 135.921 77.1527 136.524C77.0755 137.128 76.9781 137.704 76.8539 138.258C76.7435 138.761 76.5815 139.252 76.3705 139.722C76.2021 140.105 75.9579 140.451 75.6522 140.74C75.3784 140.99 75.0179 141.126 74.6451 141.121C74.4363 141.124 74.2276 141.112 74.0207 141.084C73.8572 141.065 73.6976 141.022 73.5474 140.955L73.7756 139.706C73.934 139.756 74.0995 139.781 74.2657 139.779C74.395 139.773 74.5217 139.741 74.6374 139.684C74.7531 139.627 74.8553 139.546 74.9371 139.447C75.2033 139.091 75.3846 138.68 75.4675 138.244C75.6522 137.442 75.7801 136.628 75.8502 135.809C75.9509 134.764 76.0203 133.402 76.0583 131.722H81.6913V141.051H80.1773V133.025Z" fill="white"/>
<path d="M90.1205 133.025H86.1124V141.048H84.6017V131.719H90.1205V133.025Z" fill="white"/>
<path d="M90.7416 136.382C90.7416 134.804 91.0974 133.596 91.8091 132.756C92.5207 131.917 93.5446 131.497 94.8807 131.497C95.5118 131.478 96.1399 131.591 96.7236 131.828C97.2318 132.048 97.6761 132.39 98.016 132.823C98.3729 133.282 98.63 133.809 98.7713 134.37C98.9429 135.025 99.0264 135.699 99.0198 136.375C99.0198 137.955 98.6639 139.165 97.9523 140.004C97.2372 140.846 96.2167 141.263 94.8807 141.263C94.2495 141.283 93.6213 141.17 93.0377 140.932C92.5291 140.712 92.0839 140.37 91.7419 139.938C91.3875 139.477 91.1306 138.951 90.9866 138.39C90.818 137.734 90.7356 137.059 90.7416 136.382ZM92.3092 136.382C92.3071 136.84 92.3555 137.296 92.4536 137.744C92.5327 138.147 92.6827 138.532 92.8967 138.884C93.0941 139.203 93.3657 139.471 93.6889 139.666C94.0501 139.873 94.463 139.977 94.8807 139.964C96.5927 139.978 97.4498 138.783 97.4521 136.382C97.4549 135.919 97.4065 135.456 97.3077 135.003C97.2271 134.601 97.0772 134.215 96.8646 133.863C96.6678 133.546 96.3959 133.281 96.0724 133.091C95.709 132.89 95.297 132.79 94.8807 132.803C93.1641 132.79 92.307 133.983 92.3092 136.382Z" fill="white"/>
<path d="M106.368 133.025H103.629C103.592 133.548 103.552 134.112 103.515 134.715C103.478 135.318 103.421 135.921 103.347 136.524C103.273 137.128 103.169 137.704 103.045 138.258C102.936 138.761 102.774 139.252 102.561 139.722C102.395 140.107 102.151 140.453 101.843 140.74C101.57 140.991 101.209 141.127 100.836 141.121C100.627 141.124 100.418 141.112 100.211 141.084C100.049 141.065 99.8907 141.021 99.7415 140.955L99.9664 139.706C100.126 139.756 100.293 139.781 100.46 139.779C100.589 139.774 100.716 139.742 100.832 139.685C100.948 139.627 101.05 139.547 101.131 139.447C101.4 139.092 101.582 138.68 101.662 138.244C101.848 137.437 101.974 136.617 102.038 135.792C102.138 134.747 102.208 133.385 102.246 131.706H107.879V141.035H106.365L106.368 133.025Z" fill="white"/>
<path d="M117.688 140.302C117.261 140.625 116.777 140.866 116.261 141.012C115.67 141.187 115.055 141.274 114.438 141.27C113.798 141.29 113.161 141.177 112.568 140.939C112.057 140.72 111.609 140.378 111.266 139.944C110.91 139.487 110.652 138.962 110.507 138.403C110.335 137.745 110.253 137.068 110.262 136.388C110.262 134.798 110.621 133.583 111.34 132.743C112.058 131.904 113.085 131.489 114.421 131.5C114.854 131.501 115.285 131.548 115.707 131.64C116.15 131.726 116.564 131.922 116.911 132.209C117.257 132.496 117.524 132.864 117.688 133.28C117.93 133.883 118.044 134.528 118.023 135.176C118.02 135.632 117.983 136.087 117.913 136.538H111.83C111.823 137.028 111.881 137.517 112.001 137.992C112.1 138.382 112.281 138.747 112.531 139.063C112.78 139.36 113.103 139.588 113.468 139.726C113.917 139.892 114.395 139.971 114.875 139.958C115.313 139.956 115.748 139.881 116.16 139.736C116.514 139.627 116.842 139.449 117.124 139.212L117.688 140.302ZM114.438 132.803C113.791 132.771 113.155 132.976 112.652 133.379C112.206 133.767 111.937 134.423 111.85 135.368H116.55C116.55 134.424 116.367 133.762 116.003 133.379C115.798 133.184 115.555 133.032 115.288 132.934C115.021 132.837 114.736 132.795 114.452 132.813" fill="white"/>
<path d="M126.419 133.025H123.455V141.048H121.941V133.025H118.977V131.719H126.419V133.025Z" fill="white"/>
<path d="M133.808 135.527L133.868 134.37H133.808L133.036 135.563L128.782 141.048H127.913V131.719H129.424V137.409L129.37 138.509H129.444L130.182 137.353L134.432 131.719H135.322V141.048H133.808V135.527Z" fill="white"/>
<path d="M145.131 140.302C144.701 140.626 144.214 140.867 143.694 141.012C143.103 141.186 142.488 141.273 141.871 141.27C141.23 141.29 140.592 141.177 139.998 140.939C139.486 140.72 139.038 140.378 138.695 139.944C138.339 139.487 138.082 138.963 137.94 138.403C137.767 137.746 137.684 137.068 137.692 136.389C137.692 134.798 138.051 133.583 138.769 132.743C139.488 131.904 140.515 131.487 141.851 131.494C142.283 131.494 142.714 131.541 143.137 131.633C143.58 131.722 143.993 131.918 144.34 132.205C144.686 132.491 144.954 132.858 145.121 133.273C145.362 133.876 145.477 134.521 145.456 135.169C145.451 135.625 145.413 136.08 145.342 136.531H139.273C139.267 137.021 139.323 137.51 139.441 137.986C139.538 138.376 139.719 138.741 139.971 139.056C140.219 139.353 140.541 139.581 140.904 139.719C141.355 139.885 141.833 139.964 142.314 139.951C142.752 139.95 143.187 139.875 143.6 139.729C143.953 139.62 144.281 139.442 144.563 139.205L145.131 140.302ZM141.881 132.803C141.234 132.77 140.598 132.976 140.095 133.379C139.645 133.767 139.377 134.423 139.293 135.368H143.993C143.993 134.424 143.809 133.762 143.442 133.379C143.238 133.184 142.996 133.032 142.729 132.934C142.462 132.837 142.178 132.795 141.895 132.813" fill="white"/>
<path d="M97.489 37.1777C97.2842 37.0518 97.5461 37.36 97.348 37.1976C96.2067 36.2034 95.5823 37.2274 94.8102 38.1918C95.1971 38.3185 95.525 38.5784 95.7339 38.924C95.9428 39.2696 96.0189 39.6778 95.9482 40.0742C95.8551 40.4823 95.6201 40.8454 95.284 41.1003C94.948 41.3552 94.5321 41.4858 94.1086 41.4693C93.7774 41.4693 93.4598 41.5992 93.2256 41.8304C92.9914 42.0616 92.8598 42.3752 92.8598 42.7021C92.8625 44.5425 92.4303 46.358 91.5976 48.0045C92.4622 47.9505 93.3202 48.1838 94.0347 48.6673C94.7539 47.1253 95.1882 45.4687 95.3171 43.7759C95.949 43.6212 96.5352 43.322 97.0284 42.9024C97.5216 42.4828 97.9079 41.9547 98.1562 41.3605C98.4045 40.7664 98.5078 40.123 98.4578 39.4821C98.4078 38.8413 98.2059 38.2211 97.8684 37.6715C97.731 37.5142 97.6043 37.3481 97.489 37.1744" fill="#AB0A3D"/>
<path d="M67.5217 41.4793C67.0987 41.4959 66.6831 41.3657 66.3471 41.1115C66.0111 40.8573 65.7758 40.495 65.6821 40.0874C65.6287 39.7744 65.6659 39.4528 65.7895 39.1596C65.913 38.8665 66.1178 38.6138 66.3803 38.4304L65.5847 37.9267L65.0073 37.5953C64.6716 37.655 64.3091 37.698 64.1916 37.7179C64.0741 37.7378 63.8559 37.7709 63.7116 37.7875C63.2389 38.608 63.0648 39.5634 63.2181 40.495C63.3615 41.2808 63.7288 42.0099 64.277 42.5968C64.8252 43.1838 65.5315 43.6043 66.3132 43.809C66.445 45.4904 66.878 47.1354 67.5922 48.6673C68.1309 47.991 68.831 47.457 69.6298 47.1131C69.0608 45.7139 68.7691 44.2199 68.7705 42.7121C68.7709 42.5501 68.7389 42.3896 68.6763 42.2398C68.6137 42.09 68.5217 41.954 68.4057 41.8394C68.2896 41.7248 68.1518 41.634 68.0001 41.5722C67.8484 41.5104 67.6858 41.4789 67.5217 41.4793Z" fill="#AB0A3D"/>
<path d="M74.9069 37.6086C74.576 37.6094 74.2589 37.7396 74.0249 37.9706C73.7909 38.2016 73.659 38.5147 73.6581 38.8414V40.2995C73.6581 40.6265 73.7897 40.94 74.0239 41.1712C74.2581 41.4024 74.5757 41.5323 74.9069 41.5323C75.2381 41.5323 75.5557 41.4024 75.7899 41.1712C76.0241 40.94 76.1557 40.6265 76.1557 40.2995V38.8414C76.1548 38.5147 76.023 38.2016 75.789 37.9706C75.555 37.7396 75.2378 37.6094 74.9069 37.6086Z" fill="#AB0A3D"/>
<path d="M86.7233 41.5323C87.0539 41.5314 87.3707 41.4012 87.6042 41.1701C87.8376 40.939 87.9688 40.6259 87.9688 40.2995V38.8414C87.9688 38.5144 87.8372 38.2008 87.603 37.9696C87.3688 37.7384 87.0512 37.6086 86.72 37.6086C86.3888 37.6086 86.0711 37.7384 85.8369 37.9696C85.6028 38.2008 85.4712 38.5144 85.4712 38.8414V40.2995C85.4721 40.6262 85.6039 40.9393 85.8379 41.1703C86.0719 41.4013 86.389 41.5314 86.72 41.5323" fill="#AB0A3D"/>
<path d="M70.6235 33.4926C70.4281 33.4893 70.2331 33.4749 70.0394 33.4495C69.8474 33.4255 69.6569 33.3912 69.4687 33.3468C69.4683 33.5947 69.3695 33.8327 69.1934 34.0096L66.7764 36.389C66.5915 36.524 66.3636 36.5889 66.1343 36.5721C65.905 36.5552 65.6894 36.4576 65.5267 36.2971C65.3641 36.1366 65.2653 35.9237 65.2482 35.6973C65.2311 35.4709 65.2969 35.246 65.4336 35.0634L67.7499 32.7436C67.7029 32.7171 67.6492 32.6972 67.6056 32.6707C66.8985 32.238 66.282 31.6755 65.7895 31.0137L63.5605 33.2076C63.2274 33.5364 62.9632 33.9267 62.783 34.3563C62.6027 34.7859 62.51 35.2463 62.51 35.7113C62.51 36.1763 62.6027 36.6367 62.783 37.0663C62.9632 37.4959 63.2274 37.8862 63.5605 38.215C63.8935 38.5438 64.2889 38.8046 64.7241 38.9826C65.1592 39.1605 65.6256 39.2521 66.0966 39.2521C66.5676 39.2521 67.034 39.1605 67.4692 38.9826C67.9044 38.8046 68.2998 38.5438 68.6328 38.215L71.0498 35.8289C71.3839 35.5015 71.6487 35.1115 71.8285 34.6819C72.0083 34.2524 72.0996 33.7917 72.0972 33.3269C71.6159 33.4496 71.1205 33.5098 70.6235 33.5058" fill="#AB0A3D"/>
<path d="M90.2783 33.4926C90.4737 33.4893 90.6687 33.4749 90.8624 33.4495C91.0544 33.4255 91.2449 33.3912 91.4331 33.3468C91.4335 33.5947 91.5323 33.8327 91.7084 34.0096L94.1254 36.3956C94.2075 36.5053 94.3126 36.5961 94.4335 36.662C94.5544 36.7278 94.6883 36.7672 94.826 36.7773C94.9638 36.7875 95.1021 36.7681 95.2315 36.7207C95.361 36.6732 95.4786 36.5987 95.5762 36.5023C95.6739 36.4059 95.7493 36.2899 95.7974 36.162C95.8455 36.0342 95.8651 35.8977 95.8548 35.7617C95.8445 35.6258 95.8047 35.4936 95.738 35.3742C95.6712 35.2548 95.5792 35.1511 95.4682 35.07L93.1519 32.7436C93.1989 32.7171 93.2526 32.6972 93.2962 32.6707C94.0033 32.238 94.6198 31.6755 95.1123 31.0137L97.3413 33.2109C97.6744 33.5397 97.9386 33.93 98.1188 34.3596C98.2991 34.7892 98.3918 35.2496 98.3918 35.7146C98.3918 36.1796 98.2991 36.64 98.1188 37.0696C97.9386 37.4992 97.6744 37.8895 97.3413 38.2183C97.0083 38.5471 96.6129 38.8079 96.1777 38.9859C95.7426 39.1638 95.2762 39.2554 94.8052 39.2554C94.3342 39.2554 93.8678 39.1638 93.4326 38.9859C92.9974 38.8079 92.6021 38.5471 92.269 38.2183L89.852 35.8323C89.5179 35.5048 89.2531 35.1148 89.0733 34.6853C88.8935 34.2557 88.8022 33.795 88.8046 33.3302C89.2859 33.4529 89.7813 33.5131 90.2783 33.5091" fill="#AB0A3D"/>
<path d="M80.9192 68.0674C72.2449 68.0674 65.0677 57.1677 65.0677 51.6068C65.0677 48.432 67.4176 47.3616 69.509 46.6027C71.0666 44.2166 77.6462 42.4635 79.4119 42.4635H81.1374C84.2493 42.4635 90.2011 44.3194 91.225 46.8711H91.2418C94.0851 47.5041 96.7706 48.0973 96.7706 51.6035C96.7706 57.1644 89.5935 68.0641 80.9192 68.0641M71.6507 47.8223C71.6095 48.0317 71.5139 48.2271 71.3732 48.3892C71.2326 48.5512 71.0517 48.6745 70.8484 48.7469C68.1628 49.7046 67.562 50.2116 67.562 51.6068C67.562 56.0973 73.8797 65.6018 80.9158 65.6018C87.952 65.6018 94.2697 56.0973 94.2697 51.6068C94.2697 50.2481 93.8702 49.9863 90.6912 49.287L89.8453 49.0981C89.5703 49.0358 89.3249 48.8832 89.1493 48.6653C88.9737 48.4473 88.8782 48.177 88.8785 47.8985V47.7228C88.4018 46.8181 84.3533 44.9292 81.134 44.9292H79.4086C77.5119 44.9292 72.3187 46.8778 71.6507 47.8223Z" fill="#AB0A3D"/>
<path d="M86.8945 49.6449C86.7897 49.4569 86.6371 49.299 86.4516 49.1868C86.2662 49.0747 86.0544 49.0121 85.8371 49.0053H76.0348C75.8197 49.005 75.608 49.0595 75.4205 49.1636C75.2329 49.2677 75.0758 49.4179 74.9644 49.5996C74.8529 49.7813 74.7909 49.9884 74.7844 50.2007C74.7778 50.413 74.827 50.6234 74.9271 50.8115C76.2463 53.2804 78.4552 54.7551 80.8453 54.7551C83.2355 54.7551 85.3906 53.34 86.8878 50.8711C86.9966 50.6849 87.0544 50.4739 87.0555 50.2589C87.0567 50.0439 87.0012 49.8323 86.8945 49.6449ZM78.6029 51.4676H83.118C82.4821 51.9845 81.6841 52.2671 80.8604 52.2671C80.0368 52.2671 79.2387 51.9845 78.6029 51.4676Z" fill="#AB0A3D"/>
<path d="M92.1414 27.4413C90.9732 27.4413 90.285 27.3982 89.8889 27.3684L85.2463 18.2814C85.1471 18.0889 85.005 17.9211 84.8305 17.7908C84.656 17.6605 84.4538 17.571 84.2392 17.5291C84.0272 17.4861 83.8081 17.4902 83.5979 17.5412C83.3877 17.5923 83.1916 17.6889 83.024 17.8241L80.4391 19.9285L77.8677 17.8307C77.7007 17.6944 77.5049 17.5965 77.2947 17.5444C77.0844 17.4922 76.8651 17.487 76.6525 17.5291C76.4379 17.571 76.2357 17.6605 76.0612 17.7908C75.8868 17.9211 75.7446 18.0889 75.6454 18.2814L71.0162 27.3518C70.6201 27.3816 69.9286 27.4148 68.7637 27.4247C66.2427 27.4413 64.8932 29.4495 64.8999 31.3286C64.8881 31.8312 64.9806 32.331 65.1719 32.797C65.3632 33.2629 65.6491 33.6853 66.0121 34.038C66.375 34.3908 66.8073 34.6664 67.2823 34.8479C67.7573 35.0293 68.2649 35.1129 68.7738 35.0933H92.1313C92.6403 35.1129 93.1479 35.0293 93.6229 34.8479C94.0978 34.6664 94.5301 34.3908 94.8931 34.038C95.256 33.6853 95.542 33.2629 95.7333 32.797C95.9245 32.331 96.0171 31.8312 96.0053 31.3286C96.0053 29.4495 94.6625 27.4413 92.1414 27.4247M92.1414 32.2432H68.7738C67.9614 32.2432 67.7902 31.7395 67.7869 31.3186C67.7754 31.1829 67.7932 31.0463 67.8391 30.9179C67.8849 30.7895 67.9578 30.6721 68.053 30.5734C68.1481 30.4748 68.2633 30.3972 68.391 30.3457C68.5188 30.2942 68.6561 30.27 68.7939 30.2747C71.6507 30.2515 72.9297 30.2416 73.3258 29.1712L77.4246 21.1447L79.4992 22.8348C79.7622 23.0634 80.1005 23.1895 80.4509 23.1895C80.8013 23.1895 81.1396 23.0634 81.4026 22.8348L83.4805 21.1447L87.5827 29.1546C87.952 30.1753 89.053 30.2383 92.1179 30.2615C92.2558 30.2568 92.3931 30.281 92.5208 30.3325C92.6485 30.384 92.7638 30.4616 92.8589 30.5602C92.954 30.6588 93.0269 30.7762 93.0728 30.9046C93.1187 31.0331 93.1365 31.1697 93.125 31.3054C93.125 31.7262 92.9504 32.23 92.1381 32.23" fill="#AB0A3D"/>
<path d="M59.8477 168.617H54.3491V179.136H52.9358V167.371H61.261V179.136H59.8477V168.617Z" fill="#3C3C3B"/>
<path d="M64.017 170.735H64.9536L65.2087 171.729H65.2792C65.5282 171.346 65.8758 171.036 66.2863 170.831C66.7276 170.616 67.2145 170.509 67.7063 170.519C68.8409 170.519 69.6869 170.851 70.2441 171.513C70.8014 172.176 71.0789 173.258 71.0767 174.758C71.0852 175.403 70.9912 176.046 70.798 176.663C70.6323 177.19 70.3631 177.678 70.0058 178.102C69.6677 178.491 69.2456 178.802 68.7704 179.01C68.2643 179.231 67.7162 179.344 67.1625 179.341C66.825 179.35 66.4875 179.324 66.1554 179.265C65.883 179.206 65.6175 179.119 65.3632 179.006V182.503H64.017V170.735ZM67.4579 171.709C66.961 171.682 66.4721 171.84 66.0883 172.153C65.7156 172.52 65.4681 172.993 65.3799 173.505V177.674C65.5888 177.835 65.8253 177.957 66.0782 178.035C66.4167 178.129 66.7675 178.171 67.1188 178.161C67.4767 178.174 67.8326 178.102 68.1567 177.952C68.4808 177.802 68.7638 177.577 68.9819 177.296C69.443 176.72 69.6667 175.871 69.6533 174.751C69.6566 174.331 69.6173 173.911 69.5358 173.498C69.4749 173.16 69.3508 172.835 69.1699 172.541C69.0018 172.285 68.7708 172.075 68.4985 171.931C68.1784 171.776 67.8245 171.701 67.468 171.712" fill="#3C3C3B"/>
<path d="M72.7518 174.933C72.7518 173.511 73.0729 172.421 73.7152 171.666C74.3575 170.91 75.2795 170.532 76.4813 170.532C77.0502 170.52 77.6154 170.626 78.1397 170.844C78.5974 171.04 78.9987 171.345 79.3079 171.732C79.6241 172.148 79.8524 172.623 79.9792 173.127C80.1328 173.717 80.2073 174.324 80.2008 174.933C80.2008 176.358 79.8797 177.449 79.2374 178.204C78.5951 178.96 77.673 179.338 76.4713 179.338C75.8956 179.354 75.3233 179.247 74.7928 179.026C74.3363 178.83 73.9361 178.524 73.6279 178.138C73.3117 177.722 73.0834 177.248 72.9565 176.743C72.8029 176.152 72.7284 175.544 72.735 174.933M74.1483 174.933C74.1475 175.347 74.1903 175.759 74.2758 176.163C74.3486 176.524 74.4837 176.871 74.6753 177.187C74.8584 177.478 75.1093 177.721 75.4071 177.896C75.7327 178.083 76.1049 178.176 76.4813 178.165C78.0222 178.165 78.7976 177.101 78.7976 174.937C78.7988 174.519 78.756 174.103 78.67 173.694C78.5962 173.332 78.4599 172.986 78.2672 172.67C78.0933 172.383 77.8514 172.142 77.5623 171.967C77.2356 171.787 76.8655 171.698 76.4914 171.709C74.9472 171.696 74.1751 172.771 74.1751 174.933" fill="#3C3C3B"/>
<path d="M88.5697 178.466C88.185 178.756 87.7489 178.971 87.2839 179.102C86.7509 179.263 86.1963 179.342 85.6391 179.338C85.0637 179.35 84.492 179.244 83.9606 179.026C83.5004 178.831 83.0967 178.526 82.7857 178.138C82.4693 177.725 82.2409 177.252 82.1143 176.75C81.9596 176.156 81.8851 175.546 81.8927 174.933C81.8927 173.502 82.2161 172.409 82.8629 171.656C83.5074 170.907 84.4339 170.533 85.6357 170.533C86.0253 170.532 86.4137 170.574 86.7938 170.658C87.1936 170.737 87.5669 170.914 87.8796 171.172C88.1922 171.43 88.4341 171.762 88.5831 172.136C88.7952 172.68 88.8935 173.261 88.8718 173.843C88.8689 174.254 88.8341 174.664 88.7677 175.069H83.2892C83.2829 175.516 83.3348 175.961 83.4436 176.395C83.5307 176.746 83.6933 177.075 83.9203 177.359C84.1433 177.63 84.4336 177.839 84.7629 177.966C85.1683 178.115 85.5992 178.186 86.0318 178.175C86.4268 178.174 86.8186 178.105 87.19 177.972C87.5085 177.876 87.8034 177.716 88.056 177.502L88.5697 178.466ZM85.6391 171.709C85.0562 171.679 84.483 171.865 84.0311 172.229C83.6282 172.578 83.3877 173.172 83.3093 174.009H87.529C87.529 173.16 87.3645 172.564 87.0355 172.219C86.8519 172.043 86.6327 171.906 86.3922 171.818C86.1516 171.73 85.895 171.693 85.6391 171.709Z" fill="#3C3C3B"/>
<path d="M93.1485 175.354H92.363V179.136H91.0034V170.735H92.363V174.532L93.0981 174.297L95.8206 170.735H97.3044L94.6625 174.112L93.9475 174.665L94.8337 175.338L97.677 179.136H95.9918L93.1485 175.354Z" fill="#3C3C3B"/>
<path d="M104.572 171.911H101.9V179.136H100.537V171.911H97.865V170.731H104.572V171.911Z" fill="#3C3C3B"/>
<path d="M119.232 171.238L119.4 169.472H119.316L118.668 171.086L115.569 176.398H115.146L111.86 171.069L111.246 169.472H111.162L111.4 171.222V179.136H110.071V167.371H111.128L114.854 173.389L115.418 174.701H115.452L115.979 173.356L119.537 167.371H120.645V179.136H119.232V171.238Z" fill="#3C3C3B"/>
<path d="M124.15 174.347H127.742C127.725 173.65 127.479 172.978 127.04 172.431C126.822 172.187 126.551 171.995 126.247 171.87C125.943 171.745 125.613 171.69 125.284 171.709C124.872 171.7 124.461 171.762 124.069 171.891C123.774 171.992 123.492 172.128 123.23 172.296L122.753 171.268C123.125 171.024 123.534 170.839 123.965 170.721C124.48 170.585 125.013 170.52 125.546 170.529C126.805 170.529 127.725 170.914 128.306 171.689C128.886 172.465 129.172 173.542 129.172 174.93C129.172 176.319 128.836 177.459 128.165 178.208C127.813 178.588 127.381 178.886 126.898 179.081C126.416 179.276 125.896 179.363 125.375 179.334C124.881 179.339 124.387 179.297 123.901 179.209C123.506 179.144 123.124 179.016 122.77 178.831L123.159 177.687C123.46 177.844 123.782 177.956 124.116 178.019C124.481 178.1 124.853 178.143 125.227 178.145C126.812 178.145 127.654 177.253 127.758 175.441H124.15V174.347Z" fill="#3C3C3B"/>
<path d="M131.317 170.735H132.253L132.509 171.729H132.579C132.827 171.346 133.175 171.036 133.586 170.831C134.027 170.616 134.514 170.509 135.006 170.519C136.141 170.519 136.987 170.851 137.544 171.513C138.101 172.176 138.379 173.258 138.376 174.758C138.385 175.403 138.291 176.046 138.098 176.663C137.932 177.19 137.663 177.678 137.306 178.102C136.968 178.491 136.545 178.802 136.07 179.01C135.564 179.231 135.016 179.344 134.462 179.341C134.125 179.35 133.787 179.324 133.455 179.265C133.183 179.206 132.917 179.119 132.663 179.006V182.503H131.3L131.317 170.735ZM134.758 171.709C134.261 171.682 133.772 171.84 133.388 172.153C133.015 172.52 132.768 172.993 132.68 173.505V177.674C132.889 177.835 133.125 177.957 133.378 178.035C133.715 178.129 134.065 178.171 134.415 178.161C134.774 178.174 135.13 178.103 135.455 177.952C135.78 177.802 136.063 177.577 136.282 177.296C136.743 176.72 136.972 175.871 136.97 174.751C136.973 174.331 136.934 173.911 136.852 173.498C136.786 173.159 136.657 172.834 136.47 172.541C136.302 172.284 136.071 172.073 135.798 171.928C135.478 171.772 135.124 171.697 134.768 171.709" fill="#3C3C3B"/>
<path d="M140.391 171.354C140.858 171.083 141.367 170.89 141.898 170.784C142.488 170.662 143.09 170.602 143.694 170.605C144.18 170.588 144.664 170.668 145.117 170.841C145.439 170.971 145.72 171.182 145.933 171.454C146.118 171.701 146.246 171.985 146.309 172.286C146.37 172.585 146.402 172.889 146.403 173.194C146.403 173.856 146.385 174.511 146.349 175.159C146.316 175.798 146.299 176.405 146.299 176.975C146.299 177.389 146.316 177.783 146.349 178.151C146.381 178.499 146.444 178.842 146.537 179.179H145.53L145.171 178.002H145.087C144.977 178.169 144.848 178.323 144.704 178.463C144.54 178.622 144.353 178.757 144.15 178.864C143.914 178.992 143.663 179.091 143.402 179.159C143.086 179.243 142.759 179.283 142.432 179.278C142.089 179.28 141.748 179.223 141.425 179.109C141.126 179.004 140.851 178.842 140.616 178.632C140.387 178.421 140.205 178.166 140.082 177.883C139.946 177.569 139.878 177.23 139.884 176.889C139.868 176.456 139.975 176.028 140.193 175.653C140.4 175.317 140.698 175.044 141.052 174.864C141.467 174.652 141.915 174.509 142.378 174.443C142.944 174.354 143.517 174.312 144.09 174.317H144.557C144.714 174.317 144.871 174.328 145.027 174.35C145.06 174.019 145.077 173.711 145.077 173.442C145.077 172.826 144.953 172.395 144.704 172.15C144.453 171.901 143.999 171.779 143.341 171.779C143.133 171.779 142.924 171.793 142.717 171.822C142.499 171.851 142.271 171.891 142.046 171.944C141.817 171.991 141.593 172.054 141.374 172.133C141.182 172.199 140.996 172.284 140.82 172.385L140.391 171.354ZM142.811 178.095C143.099 178.099 143.386 178.056 143.66 177.969C143.892 177.891 144.11 177.78 144.308 177.638C144.48 177.518 144.632 177.373 144.758 177.207C144.868 177.069 144.957 176.916 145.023 176.753V175.358L144.536 175.334H144.053C143.709 175.334 143.364 175.354 143.022 175.394C142.718 175.426 142.42 175.5 142.136 175.613C141.899 175.706 141.689 175.856 141.525 176.05C141.367 176.248 141.285 176.494 141.294 176.746C141.288 176.929 141.324 177.11 141.398 177.277C141.471 177.444 141.581 177.593 141.72 177.714C142.022 177.972 142.412 178.108 142.811 178.092" fill="#3C3C3B"/>
</svg>
